<svg xmlns="http://www.w3.org/2000/svg" width="496" height="496" viewBox="0 0 496 496">
  <path id="arrow-up" d="M8,256C8,119,119,8,256,8S504,119,504,256,393,504,256,504,8,393,8,256Zm143.6,28.9L224,209.4V392a23.942,23.942,0,0,0,24,24h16a23.942,23.942,0,0,0,24-24V209.4l72.4,75.5a24.027,24.027,0,0,0,34.3.4l10.9-11a23.9,23.9,0,0,0,0-33.9L273,107.7a23.9,23.9,0,0,0-33.9,0L106.3,240.4a23.9,23.9,0,0,0,0,33.9l10.9,11A24.145,24.145,0,0,0,151.6,284.9Z" transform="translate(-8 -8)" fill="#2ecc71"/>
</svg>
