<svg xmlns="http://www.w3.org/2000/svg" xmlns:xlink="http://www.w3.org/1999/xlink" width="20" height="13.871" viewBox="0 0 20 13.871">
  <defs>
    <clipPath id="clip-path">
      <rect width="20" height="13.871" fill="none"/>
    </clipPath>
  </defs>
  <g id="Burger-Menu" clip-path="url(#clip-path)">
    <g id="Group_6" data-name="Group 6" opacity="0.9">
      <path id="Path_12" data-name="Path 12" d="M115.285,158.417H100.809a.809.809,0,0,1,0-1.617h14.477a.809.809,0,0,1,0,1.617Z" transform="translate(-96.094 -150.675)" fill="#fff"/>
      <path id="Path_13" data-name="Path 13" d="M19.191,1.617H.809A.809.809,0,0,1,.809,0H19.191a.809.809,0,0,1,0,1.617Z" fill="#fff"/>
      <path id="Path_14" data-name="Path 14" d="M220.988,315.317h-10.18a.809.809,0,0,1,0-1.617h10.18a.809.809,0,0,1,0,1.617Z" transform="translate(-201.797 -301.446)" fill="#fff"/>
    </g>
  </g>
</svg>
