<svg xmlns="http://www.w3.org/2000/svg" width="700" height="700" viewBox="0 0 700 700">
  <g id="buy-shares" transform="translate(-8902 -21049)">
    <circle id="Ellipse_128" data-name="Ellipse 128" cx="350" cy="350" r="350" transform="translate(8902 21049)" fill="#fff"/>
    <path id="shares" d="M298.323.554A7.8,7.8,0,0,0,295.317,0,8.55,8.55,0,0,0,290.1,1.82c-.316.237-31.407,24.445-56.4,32.356-5.933,1.9-14.319,4.193-23.891,6.883C164,53.875,125.077,65.5,112.1,78.4c-14.4,14.4-23.891,71.2-26.9,92.084C37.023,178.235,0,219.688,0,270A101.354,101.354,0,0,0,101.261,371.263c55.852,0,101.261-45.093,101.261-100.865A100.939,100.939,0,0,0,195.8,234.64c15.031-8.465,30.457-14.24,41.3-15.347,2.373-.237,4.588-.316,6.8-.4,12.183-.554,24.761-1.187,47.941-18.037,12.5-9.019,19.619-20.885,27.214-33.384,10.443-17.246,21.2-34.967,48.02-50.551a8.372,8.372,0,0,0,4.193-7.278C371.263,29.429,299.114.87,298.323.554ZM101.261,354.808a84.412,84.412,0,1,1,26.976-164.232A121.436,121.436,0,0,0,109.33,208.85a8.291,8.291,0,0,0-7.99-6.329,8.474,8.474,0,0,0-8.465,8.465v8.86a29.457,29.457,0,0,0,4.193,58.62h8.465a12.658,12.658,0,1,1,0,25.315H75.945a8.465,8.465,0,1,0,0,16.93H92.8V329.1a8.465,8.465,0,1,0,16.929,0v-8.86a29.457,29.457,0,0,0-4.193-58.62H97.068a12.658,12.658,0,1,1,0-25.316h.4a20.818,20.818,0,0,0,6.329,14.4c7.753,7.753,17.483,10.838,27.926,10.838,16.771,0,35.125-7.99,49.523-17.8a82.657,82.657,0,0,1,4.43,26.66,84.541,84.541,0,0,1-84.415,84.405ZM149.6,177.443l16.692-35.362c4.588-1.266,12.183-3.56,18.116-5.854,1.82,1.028,3.8,1.9,5.933,2.848a49.521,49.521,0,0,1,10.284,5.538C191.841,157.033,168.662,169.691,149.6,177.443Zm155.055-18.67c-6.962,11.471-12.974,21.439-22.7,28.479-19.066,13.923-27.847,14.319-38.843,14.794q-3.679.119-7.6.475c-17.088,1.661-41.849,12.1-63.051,26.739-18.828,13.053-44.618,21.518-56.722,9.414-.949-.949-1.82-2.294-1.187-5.379,2.69-13.211,27.293-34.571,40.583-39.95,15.98-6.487,54.19-23.97,63.683-46.754a8.31,8.31,0,0,0-.791-7.911c-5.617-8.465-14.4-12.262-20.806-15.11-1.978-.87-4.588-1.82-4.588-1.9a8.468,8.468,0,0,0-10.68-2.769c-5.142,2.532-18.907,6.487-23.733,7.832a8.515,8.515,0,0,0-5.459,4.588L132.509,174.2a103.505,103.505,0,0,0-29.9-5.063c4.747-30.7,13.607-70.882,21.6-78.873C135.04,79.426,184.8,65.5,214.467,57.2c9.81-2.769,18.354-5.142,24.445-7.041C261.3,43.118,286.773,25.319,296.5,18.12c13.449,6.645,55.614,31.8,57.908,86.784-27.53,17.242-39.792,37.5-49.76,53.87Z" transform="translate(9066 21213)" fill="#3827b4"/>
  </g>
</svg>
