<svg xmlns="http://www.w3.org/2000/svg" width="384" height="512" viewBox="0 0 384 512">
  <path id="hourglass-half-solid" d="M360,0H24A24,24,0,0,0,0,24V40A24,24,0,0,0,24,64c0,90.965,51.016,167.734,120.842,192C75.016,280.266,24,357.035,24,448A24,24,0,0,0,0,472v16a24,24,0,0,0,24,24H360a24,24,0,0,0,24-24V472a24,24,0,0,0-24-24c0-90.965-51.016-167.734-120.842-192C308.984,231.734,360,154.965,360,64a24,24,0,0,0,24-24V24A24,24,0,0,0,360,0ZM284.922,384H99.08c17.059-46.8,52.1-80,92.92-80S267.862,337.2,284.922,384Zm.019-256H99.078A187.613,187.613,0,0,1,88,64H296A187.633,187.633,0,0,1,284.941,128Z" fill="#f2f2f2"/>
</svg>
