<svg xmlns="http://www.w3.org/2000/svg" width="700" height="700" viewBox="0 0 700 700">
  <g id="inquire-bg" transform="translate(-8960 -20290)">
    <circle id="Ellipse_128" data-name="Ellipse 128" cx="350" cy="350" r="350" transform="translate(8960 20290)" fill="#fff"/>
    <path id="inquire" d="M353.07,64H36.525C16.352,64,0,82.029,0,104.269V345.88c0,22.24,16.352,40.269,36.525,40.269H353.07c20.172,0,36.525-18.029,36.525-40.269V104.269C389.595,82.029,373.242,64,353.07,64Zm0,40.269V138.5c-17.061,15.318-44.262,39.137-102.411,89.337-12.815,11.113-38.2,37.812-55.862,37.5-17.66.315-43.052-26.392-55.862-37.5C80.8,177.645,53.588,153.822,36.525,138.5V104.269ZM36.525,345.88V190.173c17.436,15.311,42.162,36.8,79.85,69.334,16.632,14.434,45.758,46.3,78.423,46.1,32.5.194,61.262-31.207,78.416-46.1,37.687-32.536,62.42-54.028,79.857-69.34V345.88Z" transform="translate(9115 20415)" fill="#5e50dd"/>
  </g>
</svg>
