<svg xmlns="http://www.w3.org/2000/svg" width="700" height="700" viewBox="0 0 700 700">
  <g id="refs" transform="translate(-9556 -21552)">
    <circle id="Ellipse_128" data-name="Ellipse 128" cx="350" cy="350" r="350" transform="translate(9556 21552)" fill="#fff"/>
    <path id="users" d="M68.127,168.255a45.418,45.418,0,1,0-45.418-45.418,45.418,45.418,0,0,0,45.418,45.418Zm317.928,0a45.418,45.418,0,1,0-45.418-45.418A45.418,45.418,0,0,0,386.055,168.255Zm22.709,22.709H363.346a45.285,45.285,0,0,0-32.006,13.2,103.8,103.8,0,0,1,53.3,77.637h46.838a22.685,22.685,0,0,0,22.709-22.709V236.382A45.46,45.46,0,0,0,408.764,190.964Zm-181.673,0A79.442,79.442,0,1,0,170.877,167.7a79.482,79.482,0,0,0,56.214,23.268Zm54.5,22.709H275.7a109.737,109.737,0,0,1-97.223,0h-5.89a81.774,81.774,0,0,0-81.753,81.753v20.438A34.072,34.072,0,0,0,124.9,349.928H329.282a34.072,34.072,0,0,0,34.064-34.064V295.426A81.774,81.774,0,0,0,281.593,213.673Zm-158.751-9.509a45.285,45.285,0,0,0-32.006-13.2H45.418A45.46,45.46,0,0,0,0,236.382v22.709A22.685,22.685,0,0,0,22.709,281.8H69.476a104.065,104.065,0,0,1,53.366-77.637Z" transform="translate(9679 21711)" fill="#5e50dd"/>
  </g>
</svg>
