<svg xmlns="http://www.w3.org/2000/svg" xmlns:xlink="http://www.w3.org/1999/xlink" width="161.802" height="158.009" viewBox="0 0 161.802 158.009">
  <defs>
    <filter id="Ellipse_114" x="0" y="0" width="161.802" height="158.009" filterUnits="userSpaceOnUse">
      <feOffset dy="11" input="SourceAlpha"/>
      <feGaussianBlur stdDeviation="11" result="blur"/>
      <feFlood flood-opacity="0.161"/>
      <feComposite operator="in" in2="blur"/>
      <feComposite in="SourceGraphic"/>
    </filter>
    <clipPath id="clip-path">
      <path id="Path_18" data-name="Path 18" d="M46.175,39.781a2.474,2.474,0,0,0-.538-.717,130.659,130.659,0,0,0-13.8-5.555v-.717c11.11-1.075,11.289-2.509,11.468-3.4.179-1.434-1.434-1.971-1.971-2.15-4.3-1.613-3.584-4.659-3.4-5.2,1.254-8.243.358-14.156-2.509-17.382a8.137,8.137,0,0,0-6.63-2.867A12.231,12.231,0,0,0,22.7,0a9.954,9.954,0,0,0-6.989,3.046c-2.867,3.225-3.225,7.347-3.4,11.648-.179,4.659-.358,9.5-3.942,13.081a1.512,1.512,0,0,0-.358,1.254c.179.358,1.434,3.763,8.96,3.942v.358c-2.509.9-10.393,3.942-13.8,5.734-.179.179-.538.358-.538.717-.179.358-2.688,7.526-1.613,12.9.179.538.538,1.254,1.254,1.254H46.533c.538,0,1.075-.717,1.254-1.254,1.075-5.2-1.434-12.544-1.613-12.9Zm-27.417-4.3c.538-.179.717-.538.9-1.075V31.9A1.225,1.225,0,0,0,18.4,30.642h-.538c-4.48,0-6.272-1.075-6.989-1.792,3.584-4.3,3.763-9.318,3.942-13.977.179-4.121.358-7.526,2.509-9.856a6.972,6.972,0,0,1,5.2-2.33A9.182,9.182,0,0,1,27.539,4.3c.358.179.717.358.9.179a5.684,5.684,0,0,1,4.838,1.971c1.613,1.792,3.226,6.093,1.971,15.232-.717,1.792-.538,5.734,4.121,7.705a53.846,53.846,0,0,1-8.96,1.254c-.717,0-1.075.538-1.075,1.254v2.688a1.136,1.136,0,0,0,.9,1.075,24.284,24.284,0,0,1,2.867,1.075,14.32,14.32,0,0,1-9.676,4.3,13.768,13.768,0,0,1-8.6-3.942,27.518,27.518,0,0,1,3.942-1.613Z" transform="translate(-0.751 0)" fill="#192a56" clip-rule="evenodd"/>
    </clipPath>
  </defs>
  <g id="user-male" transform="translate(16436 -5144)">
    <g transform="matrix(1, 0, 0, 1, -16436, 5144)" filter="url(#Ellipse_114)">
      <ellipse id="Ellipse_114-2" data-name="Ellipse 114" cx="47.901" cy="46.004" rx="47.901" ry="46.004" transform="translate(33 22)" fill="#fff"/>
    </g>
    <g id="girl-HJY6nanoE" transform="translate(-16378.369 5184.887)" opacity="0.68">
      <g id="Group_95" data-name="Group 95" transform="translate(0 0)">
        <g id="Mask_Group_2" data-name="Mask Group 2" clip-path="url(#clip-path)">
          <path id="user-tie-solid" d="M23.6,26.969A13.484,13.484,0,1,0,10.113,13.484,13.483,13.483,0,0,0,23.6,26.969ZM33.69,30.4,28.654,50.566,25.283,36.239l3.371-5.9H18.541l3.371,5.9L18.541,50.566,13.505,30.4A14.134,14.134,0,0,0,0,44.5v4.382a5.058,5.058,0,0,0,5.057,5.057H42.139A5.058,5.058,0,0,0,47.2,48.881V44.5A14.134,14.134,0,0,0,33.69,30.4Z" transform="translate(0.054 0)"/>
        </g>
      </g>
    </g>
  </g>
</svg>
