<svg xmlns="http://www.w3.org/2000/svg" width="640" height="448" viewBox="0 0 640 448">
  <path id="users" d="M96,224a64,64,0,1,0-64-64A64.059,64.059,0,0,0,96,224Zm448,0a64,64,0,1,0-64-64A64.059,64.059,0,0,0,544,224Zm32,32H512a63.812,63.812,0,0,0-45.1,18.6A146.273,146.273,0,0,1,542,384h66a31.966,31.966,0,0,0,32-32V320A64.059,64.059,0,0,0,576,256Zm-256,0A112,112,0,1,0,208,144,111.944,111.944,0,0,0,320,256Zm76.8,32h-8.3A157.526,157.526,0,0,1,320,304c-24.6,0-47.6-6-68.5-16h-8.3A115.23,115.23,0,0,0,128,403.2V432a48.012,48.012,0,0,0,48,48H464a48.012,48.012,0,0,0,48-48V403.2A115.23,115.23,0,0,0,396.8,288ZM173.1,274.6A63.812,63.812,0,0,0,128,256H64A64.059,64.059,0,0,0,0,320v32a31.966,31.966,0,0,0,32,32H97.9a146.641,146.641,0,0,1,75.2-109.4Z" transform="translate(0 -32)" fill="#5e50dd"/>
</svg>
