<svg xmlns="http://www.w3.org/2000/svg" width="496" height="496" viewBox="0 0 496 496">
  <path id="user-simple" d="M248,104a96,96,0,1,0,96,96A96.025,96.025,0,0,0,248,104Zm0,144a48,48,0,1,1,48-48A48.012,48.012,0,0,1,248,248ZM248,8C111,8,0,119,0,256S111,504,248,504,496,393,496,256,385,8,248,8Zm0,448a198.861,198.861,0,0,1-130.1-48.4,86.15,86.15,0,0,1,69.6-39.5c20.8,6.4,40.6,9.6,60.5,9.6a200.286,200.286,0,0,0,60.5-9.6,86.4,86.4,0,0,1,69.6,39.5A198.861,198.861,0,0,1,248,456Zm162.7-84.1C386.3,340.5,348.6,320,305.6,320c-10.2,0-26,9.6-57.6,9.6-31.5,0-47.4-9.6-57.6-9.6-42.9,0-80.6,20.5-105.1,51.9A198.567,198.567,0,0,1,48,256C48,145.7,137.7,56,248,56s200,89.7,200,200A198.567,198.567,0,0,1,410.7,371.9Z" transform="translate(0 -8)" fill="rgba(68,0,130,0.58)"/>
</svg>
