<svg xmlns="http://www.w3.org/2000/svg" width="660" height="532" viewBox="0 0 660 532">
  <path id="user" d="M624,208H560V144a16.047,16.047,0,0,0-16-16H512a16.047,16.047,0,0,0-16,16v64H432a16.047,16.047,0,0,0-16,16v32a16.047,16.047,0,0,0,16,16h64v64a16.047,16.047,0,0,0,16,16h32a16.047,16.047,0,0,0,16-16V272h64a16.047,16.047,0,0,0,16-16V224A16.047,16.047,0,0,0,624,208ZM224,256A128,128,0,1,0,96,128,127.99,127.99,0,0,0,224,256Zm89.6,32H296.9a174.075,174.075,0,0,1-145.8,0H134.4A134.435,134.435,0,0,0,0,422.4V464a48.012,48.012,0,0,0,48,48H400a48.012,48.012,0,0,0,48-48V422.4A134.435,134.435,0,0,0,313.6,288Z" transform="translate(10 10)" fill="none" stroke="#3827b4" stroke-width="20"/>
</svg>
