<svg xmlns="http://www.w3.org/2000/svg" width="700" height="700" viewBox="0 0 700 700">
  <g id="wallet-bg" transform="translate(-9735 -20788)">
    <circle id="Ellipse_128" data-name="Ellipse 128" cx="350" cy="350" r="350" transform="translate(9735 20788)" fill="#fff"/>
    <path id="wallet" d="M322.222,99.071H55.893a11.179,11.179,0,0,1,0-22.357H324.179a11.179,11.179,0,0,0,11.179-11.179A33.536,33.536,0,0,0,301.821,32H44.714A44.714,44.714,0,0,0,0,76.714V300.286A44.714,44.714,0,0,0,44.714,345H322.222c19.576,0,35.492-15.042,35.492-33.536V132.607C357.714,114.114,341.8,99.071,322.222,99.071ZM290.643,244.393A22.357,22.357,0,1,1,313,222.036,22.357,22.357,0,0,1,290.643,244.393Z" transform="translate(9906.5 20949.5)" fill="#5e50dd" stroke="#5e50dd" stroke-width="25"/>
  </g>
</svg>
