<svg xmlns="http://www.w3.org/2000/svg" width="559.998" height="528" viewBox="0 0 559.998 528">
  <path id="withdraw" d="M257.6,144.3l50,14.3a8.412,8.412,0,0,1-2.3,16.5H272.5a25.725,25.725,0,0,1-10.3-2.2c-4.8-2.2-10.4-1.7-14.1,2l-17.5,17.5c-5.3,5.3-4.7,14.3,1.5,18.4a73.069,73.069,0,0,0,31.8,11.5V240a16.047,16.047,0,0,0,16,16h16a16.047,16.047,0,0,0,16-16V222.4a56.263,56.263,0,0,0,49.3-63c-2.9-23-20.7-41.3-42.9-47.7l-50-14.3a8.412,8.412,0,0,1,2.3-16.5h32.8a25.725,25.725,0,0,1,10.3,2.2c4.8,2.2,10.4,1.7,14.1-2l17.5-17.5c5.3-5.3,4.7-14.3-1.5-18.4A73.069,73.069,0,0,0,312,33.7V16A16.047,16.047,0,0,0,296,0H280a16.047,16.047,0,0,0-16,16V33.6a56.263,56.263,0,0,0-49.3,63C217.6,119.6,235.4,137.9,257.6,144.3ZM533.9,328.1c-11.2-10.7-28.5-10-40.3,0L406.4,402a58.159,58.159,0,0,1-37.8,14H256.9c-8.3,0-15.1-7.2-15.1-16s6.8-16,15.1-16h73.9c15.1,0,29-10.9,31.4-26.6,3.1-20-11.5-37.4-29.8-37.4H181.3a106.921,106.921,0,0,0-69.9,26.3L67.5,384H15.1C6.8,384,0,391.2,0,400v96c0,8.8,6.8,16,15.1,16H352a58.554,58.554,0,0,0,37.8-14L532.6,377c14.4-12.1,15.5-35.3,1.3-48.9Z" transform="translate(8 8)" fill="none" stroke="#3827b4" stroke-width="16"/>
</svg>
