<svg xmlns="http://www.w3.org/2000/svg" xmlns:xlink="http://www.w3.org/1999/xlink" width="109" height="109" viewBox="0 0 109 109">
  <defs>
    <filter id="Ellipse_125" x="0" y="0" width="109" height="109" filterUnits="userSpaceOnUse">
      <feOffset dy="3" input="SourceAlpha"/>
      <feGaussianBlur stdDeviation="3" result="blur"/>
      <feFlood flood-opacity="0.161"/>
      <feComposite operator="in" in2="blur"/>
      <feComposite in="SourceGraphic"/>
    </filter>
  </defs>
  <g id="pending" transform="translate(-552 -222)">
    <g transform="matrix(1, 0, 0, 1, 552, 222)" filter="url(#Ellipse_125)">
      <circle id="Ellipse_125-2" data-name="Ellipse 125" cx="45.5" cy="45.5" r="45.5" transform="translate(9 6)" fill="#fff"/>
    </g>
    <g id="money-Hkrl3Wu6V" transform="translate(563.229 227.6)" opacity="0.58">
      <g id="Group_188" data-name="Group 188" transform="translate(22.77 19.4)">
        <path id="Path_42" data-name="Path 42" d="M19.285.4A14.772,14.772,0,0,0,4.5,15.017a14.785,14.785,0,0,0,29.569,0A14.883,14.883,0,0,0,19.285.4Zm1.176,22.849h0v2.184c0,.672-.168,1.176-.84,1.176s-.84-.5-.84-1.176V23.249H15.924c-.672,0-1.176-.168-1.176-.84s.5-.84,1.176-.84h4.536a2.378,2.378,0,0,0,2.184-2.352c0-1.344-1.008-2.688-2.184-2.688H18.109a4.167,4.167,0,0,1-4.032-4.368c0-2.688,2.184-4.032,4.7-4.032h0V5.272c0-.672.168-1.176.84-1.176s.84.5.84,1.176V8.128h2.184c.672,0,1.176.168,1.176.84s-.5.84-1.176.84H18.109a2.378,2.378,0,0,0-2.184,2.352c0,1.344,1.008,2.688,2.184,2.688h2.352a3.882,3.882,0,0,1,4.032,4.032c0,2.688-1.512,4.368-4.032,4.368Z" transform="translate(1.766 -0.4)" fill="none" stroke="#707070" stroke-width="2"/>
        <path id="Path_43" data-name="Path 43" d="M39.462,15.344l-1.008-.672-.168-.168a1.283,1.283,0,0,0-.84-.336c-1.512,0-1.68,1.848-2.016,5.712-.168,1.344-.336,3.528-.5,4.032-.168.336-.672.84-1.176,1.512a3.523,3.523,0,0,0-1.344-1.848.587.587,0,0,0-.336-.168,3.16,3.16,0,0,0-4.032,1.008l-3.024,4.536c0,.168-.168.168-.168.336L23,36.849H19.973l-2.016-7.728c0-.168-.168-.168-.168-.336l-3.024-4.536a3.11,3.11,0,0,0-4.2-1.008l-.168.168a3.523,3.523,0,0,0-1.344,1.848c-.5-.672-1.008-1.176-1.176-1.512a18.308,18.308,0,0,1-.5-4.032C7.036,15.848,6.868,14,5.356,14a1.774,1.774,0,0,0-.84.336l-.168.168-1.176.84C.988,16.856-.02,25.929,1.492,27.945A59.421,59.421,0,0,0,8.381,35.5a13.906,13.906,0,0,0,2.52,1.848,1.274,1.274,0,0,0-.336.672l.168,4.032a2.428,2.428,0,0,0,.336,1.176,1.047,1.047,0,0,0,.84.5h0l9.408-.336.168-.168.168.336,9.408.336h0a1.428,1.428,0,0,0,.84-.5,2.428,2.428,0,0,0,.336-1.176l.168-4.2c0-.336-.168-.5-.168-.672a9.788,9.788,0,0,0,2.52-1.848c1.344-1.344,5.544-5.88,6.888-7.56,1.008-2.016.168-11.088-2.184-12.6ZM12.749,40.881V39.033l7.224-.168v1.848l-7.224.168Zm17.137,0-7.224-.168V38.865l7.224.168v1.848Z" transform="translate(-0.77 8.849)" fill="none" stroke="#707070" stroke-width="2"/>
      </g>
    </g>
  </g>
</svg>
