<svg xmlns="http://www.w3.org/2000/svg" xmlns:xlink="http://www.w3.org/1999/xlink" width="131.174" height="128.593" viewBox="0 0 131.174 128.593">
  <defs>
    <filter id="Ellipse_114" x="0" y="0" width="131.174" height="128.593" filterUnits="userSpaceOnUse">
      <feOffset input="SourceAlpha"/>
      <feGaussianBlur stdDeviation="11" result="blur"/>
      <feFlood flood-opacity="0.161"/>
      <feComposite operator="in" in2="blur"/>
      <feComposite in="SourceGraphic"/>
    </filter>
    <clipPath id="clip-path">
      <path id="Path_18" data-name="Path 18" d="M31.654,27.063a1.683,1.683,0,0,0-.366-.488A88.89,88.89,0,0,0,21.9,22.8v-.488c7.558-.731,7.68-1.707,7.8-2.313.122-.976-.976-1.341-1.341-1.463-2.925-1.1-2.438-3.17-2.313-3.538.853-5.608.244-9.63-1.707-11.825a5.536,5.536,0,0,0-4.51-1.95A8.321,8.321,0,0,0,15.684,0a6.772,6.772,0,0,0-4.755,2.072C8.979,4.266,8.735,7.07,8.616,10c-.122,3.17-.244,6.463-2.682,8.9a1.029,1.029,0,0,0-.244.853c.122.244.976,2.56,6.1,2.682v.244c-1.707.612-7.07,2.682-9.388,3.9-.122.122-.366.244-.366.488-.122.244-1.829,5.12-1.1,8.776.122.366.366.853.853.853H31.9c.366,0,.731-.488.853-.853.731-3.538-.976-8.534-1.1-8.776ZM13,24.138c.366-.122.488-.366.612-.731V21.7a.833.833,0,0,0-.856-.856h-.366c-3.048,0-4.267-.731-4.755-1.219,2.438-2.925,2.56-6.339,2.682-9.509.122-2.8.244-5.12,1.707-6.705a4.743,4.743,0,0,1,3.538-1.585,6.247,6.247,0,0,1,3.412,1.1c.244.122.488.244.612.122a3.867,3.867,0,0,1,3.291,1.341c1.1,1.219,2.195,4.145,1.341,10.362-.488,1.219-.366,3.9,2.8,5.242a36.632,36.632,0,0,1-6.1.853c-.488,0-.731.366-.731.853v1.829a.773.773,0,0,0,.612.731,16.52,16.52,0,0,1,1.95.731,9.742,9.742,0,0,1-6.583,2.925,9.366,9.366,0,0,1-5.851-2.682,18.72,18.72,0,0,1,2.682-1.1Z" transform="translate(-0.753)" fill="#192a56"/>
    </clipPath>
  </defs>
  <g id="user-male" transform="translate(16436 -5133)">
    <g transform="matrix(1, 0, 0, 1, -16436, 5133)" filter="url(#Ellipse_114)">
      <ellipse id="Ellipse_114-2" data-name="Ellipse 114" cx="32.587" cy="31.296" rx="32.587" ry="31.296" transform="translate(33 33)" fill="#fff"/>
    </g>
    <g id="girl-HJY6nanoE" transform="translate(-16386.242 5178.849)" opacity="0.68">
      <g id="Group_95" data-name="Group 95" transform="translate(0)">
        <g id="Mask_Group_2" data-name="Mask Group 2" clip-path="url(#clip-path)">
          <path id="user-tie-solid" d="M16.055,18.347A9.173,9.173,0,1,0,6.88,9.173a9.173,9.173,0,0,0,9.175,9.174Zm6.864,2.334L19.493,34.4,17.2,24.654l2.293-4.014h-6.88l2.293,4.014L12.613,34.4,9.187,20.681A9.615,9.615,0,0,0,0,30.274v2.981a3.441,3.441,0,0,0,3.44,3.44H28.667a3.441,3.441,0,0,0,3.443-3.441v-2.98a9.615,9.615,0,0,0-9.191-9.592Z" transform="translate(0.035 0)"/>
        </g>
      </g>
    </g>
  </g>
</svg>
