<svg xmlns="http://www.w3.org/2000/svg" xmlns:xlink="http://www.w3.org/1999/xlink" width="131" height="127" viewBox="0 0 131 127">
  <defs>
    <filter id="Ellipse_114" x="0" y="0" width="131" height="127" filterUnits="userSpaceOnUse">
      <feOffset input="SourceAlpha"/>
      <feGaussianBlur stdDeviation="11" result="blur"/>
      <feFlood flood-opacity="0.161"/>
      <feComposite operator="in" in2="blur"/>
      <feComposite in="SourceGraphic"/>
    </filter>
  </defs>
  <g id="user-female" transform="translate(-1710 -24)">
    <g transform="matrix(1, 0, 0, 1, 1710, 24)" filter="url(#Ellipse_114)">
      <ellipse id="Ellipse_114-2" data-name="Ellipse 114" cx="32.5" cy="30.5" rx="32.5" ry="30.5" transform="translate(33 33)" fill="#fff"/>
    </g>
    <g id="girl-HJY6nanoE" transform="translate(1761.654 71.762)" opacity="0.68">
      <g id="Group_95" data-name="Group 95" transform="translate(0 0)">
        <path id="Path_18" data-name="Path 18" d="M26.664,22.694a1.412,1.412,0,0,0-.307-.409,74.538,74.538,0,0,0-7.871-3.169v-.411c6.335-.613,6.44-1.431,6.543-1.942.1-.82-.82-1.125-1.125-1.227-2.453-.92-2.044-2.658-1.942-2.965.715-4.7.2-8.076-1.431-9.916a4.641,4.641,0,0,0-3.782-1.636A6.977,6.977,0,0,0,13.272,0,5.679,5.679,0,0,0,9.283,1.738C7.65,3.577,7.445,5.929,7.345,8.383c-.1,2.658-.2,5.418-2.249,7.462a.862.862,0,0,0-.2.715c.1.2.82,2.147,5.111,2.249v.2c-1.433.512-5.931,2.249-7.874,3.269-.1.1-.307.2-.307.409-.1.2-1.534,4.293-.92,7.36.1.307.307.715.715.715H26.871c.307,0,.613-.409.715-.715.613-2.965-.82-7.154-.92-7.36ZM11.023,20.241c.307-.1.409-.307.511-.613V18.2a.7.7,0,0,0-.715-.715h-.307c-2.555,0-3.577-.613-3.987-1.022,2.044-2.453,2.147-5.316,2.249-7.974.1-2.351.2-4.293,1.431-5.622a3.977,3.977,0,0,1,2.965-1.329,5.238,5.238,0,0,1,2.863.92c.2.1.409.2.511.1A3.243,3.243,0,0,1,19.3,3.681c.923,1.022,1.843,3.474,1.128,8.69-.409,1.022-.307,3.271,2.351,4.4a30.717,30.717,0,0,1-5.111.715c-.409,0-.613.307-.613.715v1.534a.648.648,0,0,0,.511.613,13.854,13.854,0,0,1,1.636.613,8.169,8.169,0,0,1-5.522,2.45,7.854,7.854,0,0,1-4.907-2.249,15.7,15.7,0,0,1,2.249-.92Z" transform="translate(-0.749 0)" fill="#192a56" fill-rule="evenodd"/>
      </g>
    </g>
  </g>
</svg>
