<svg xmlns="http://www.w3.org/2000/svg" width="226" height="252.052" viewBox="0 0 226 252.052">
  <g id="logo-black" transform="translate(-348.655 -42.578)" opacity="0.14">
    <path id="Path_18" data-name="Path 18" d="M-11315.531,16495.576l26.488,19.475-2.336,88.043s-25.322,15.58-24.152,15.967S-11315.531,16495.576-11315.531,16495.576Z" transform="translate(11799.179 -16452.998)" fill="#666e75"/>
    <path id="Path_19" data-name="Path 19" d="M-11291.931,16510.494v91.541l24.542-16.361v-57.262Z" transform="translate(11819.986 -16439.871)" fill="#666e75"/>
    <path id="Path_20" data-name="Path 20" d="M-11271.322,16566.656l24.541-15.973v33.506l-68.562,44.016v-33.5Z" transform="translate(11799.38 -16404.488)" fill="#666e75"/>
    <path id="Path_21" data-name="Path 21" d="M-11317.295,16648.268l1.558-120.371-25.709,15.582v87.258Z" transform="translate(11776.401 -16424.551)" fill="#666e75"/>
    <path id="Path_23" data-name="Path 23" d="M-11365.687,16544.881l26.49-16.363v91.545l-26.49-18.7Z" transform="translate(11755.064 -16427.766)" fill="#666e75"/>
    <g id="Group_82" data-name="Group 82" transform="translate(348.655 222.913)">
      <text id="CITGO_AFRICA" data-name="CITGO AFRICA" transform="translate(0 28)" fill="#666e75" font-size="29" font-family="Montserrat-Black, Montserrat" font-weight="800"><tspan x="0" y="0">CITGO AFRICA</tspan></text>
      <text id="OIL_PTY_LTD" data-name="OIL  (PTY) LTD" transform="translate(23.237 53.512)" fill="#666e75" font-size="21" font-family="Montserrat-ExtraBold, Montserrat" font-weight="800" opacity="0.61"><tspan x="0" y="0" xml:space="preserve">OIL  (PTY) LTD</tspan></text>
      <text id="WORLD_FUEL_LEADING_COMPANY" data-name="WORLD FUEL LEADING COMPANY" transform="translate(42.04 69.716)" fill="#666e75" font-size="8" font-family="Montserrat-SemiBoldItalic, Montserrat" font-weight="600" font-style="italic"><tspan x="0" y="0">WORLD FUEL LEADING COMPANY</tspan></text>
    </g>
    <path id="Path_22" data-name="Path 22" d="M-11294.4,16526.949l-71.289,46.742v-34.668l71.289-43.24Z" transform="translate(11755.064 -16452.816)" fill="#666e75"/>
  </g>
</svg>
